<svg width="10" height="9" viewBox="0 0 10 9" fill="none" xmlns="http://www.w3.org/2000/svg">
<g id="Group">
<path id="Vector" d="M4.09032 4.43312C4.43032 5.29312 5.1004 7.11313 6.4204 7.32313L6.05028 8.19313C6.05028 8.19313 5.96034 8.49303 5.61034 8.46303H3.96044C3.96044 8.46303 3.67029 8.4531 3.56029 8.1631C3.26029 7.3231 2.18041 4.89308 2.18041 4.89308L0.610342 1.17311C0.610342 1.17311 0.440372 0.90309 0.640372 0.65309C0.640372 0.65309 0.770245 0.453046 1.01024 0.483046H2.19042C2.19042 0.483046 2.46037 0.443061 2.64037 0.873061C2.64037 0.873061 3.73031 3.53311 4.08031 4.42311L4.09032 4.43312Z" fill="white"/>
<path id="Vector_2" d="M5.63037 4.44307C5.63037 4.44307 4.76023 7.10299 3.24023 7.36299L3.5603 8.17305C3.5603 8.17305 3.68029 8.543 4.05029 8.493H5.71045C5.71045 8.493 5.99033 8.45304 6.09033 8.16304C6.39033 7.32304 7.48047 4.89302 7.48047 4.89302L9.0603 1.17305C9.0603 1.17305 9.24027 0.903031 9.03027 0.653031C9.03027 0.653031 8.9004 0.473006 8.6604 0.503006H7.47046C7.47046 0.503006 7.21026 0.453001 7.02026 0.873001L5.63037 4.43306V4.44307Z" fill="white"/>
</g>
</svg>
